# xmcd CD database file
#
# Track frame offsets:
#	150
#	29755
#	113695
#	186613
#	218518
#	264727
#	317791
#
# Disc length: 4385 seconds
#
# Revision: 0
# Processed by: cddbd v1.5.2PL0 Copyright (c) Steve Scherf et al.
# Submitted via: CDex 1.70beta2
#
DISCID=68111f07
DTITLE=Johann Wolfgang von Goethe - Der Mann von fünfzig Jahren
DYEAR=2005
DGENRE=Blues
TTITLE0=Der Mann von fünfzig Jahren...
TTITLE1=Nur wenige Stunden Schlaf bedurfte der Major...
TTITLE2=Indessen mußte sich der Major entschließen...
TTITLE3=Schon einige Monate waren die Familienmitglieder ohne Nachricht...
TTITLE4=So verging einige Zeit...
TTITLE5=Der Major hatte seine Zeit jenem Familiengeschäft gewidmet...
TTITLE6=Wer fühlt, dass wir uns dem Ende nähern...
EXTD=YEAR: 2005
EXTT0=
EXTT1=
EXTT2=
EXTT3=
EXTT4=
EXTT5=
EXTT6=
PLAYORDER=
